{
  "accessors": [
    {
      "bufferView": 2,
      "componentType": 5126,
      "count": 8242,
      "max": [
        7.3180408477783203,
        24.699001312255859,
        5.9837393760681152
      ],
      "min": [
        -7.4361410140991211,
        0,
        -8.3423957824707031
      ],
      "type": "VEC3"
    },
    {
      "bufferView": 2,
      "byteOffset": 98904,
      "componentType": 5126,
      "count": 8242,
      "max": [
        0.9994431734085083,
        0.9995083212852478,
        0.99977654218673706
      ],
      "min": [
        -0.99995434284210205,
        -0.99818384647369385,
        -0.99900436401367188
      ],
      "type": "VEC3"
    },
    {
      "bufferView": 1,
      "componentType": 5126,
      "count": 8242,
      "max": [
        0.99597126245498657,
        0.99611932039260864
      ],
      "min": [
        0.0045212726108729839,
        0.0038362741470336914
      ],
      "type": "VEC2"
    },
    {
      "bufferView": 1,
      "byteOffset": 65936,
      "componentType": 5126,
      "count": 8242,
      "max": [
        0.99597126245498657,
        0.99611932039260864
      ],
      "min": [
        0.0045212726108729839,
        0.0038362741470336914
      ],
      "type": "VEC2"
    },
    {
      "bufferView": 1,
      "byteOffset": 131872,
      "componentType": 5126,
      "count": 8242,
      "max": [
        0.99597126245498657,
        0.99611932039260864
      ],
      "min": [
        0.0045212726108729839,
        0.0038362741470336914
      ],
      "type": "VEC2"
    },
    {
      "bufferView": 0,
      "componentType": 5125,
      "count": 44937,
      "max": [
        8241
      ],
      "min": [
        0
      ],
      "type": "SCALAR"
    },
    {
      "bufferView": 2,
      "byteOffset": 197808,
      "componentType": 5126,
      "count": 59533,
      "max": [
        3.3689084053039551,
        26.150178909301758,
        2.7118768692016602
      ],
      "min": [
        -3.4007101058959961,
        0,
        -1.4918035268783569
      ],
      "type": "VEC3"
    },
    {
      "bufferView": 2,
      "byteOffset": 912204,
      "componentType": 5126,
      "count": 59533,
      "max": [
        0.99998492002487183,
        0.99999505281448364,
        0.9999995231628418
      ],
      "min": [
        -0.99998492002487183,
        -0.99999207258224487,
        -0.99999141693115234
      ],
      "type": "VEC3"
    },
    {
      "bufferView": 1,
      "byteOffset": 197808,
      "componentType": 5126,
      "count": 59533,
      "max": [
        0.99389570951461792,
        0.99956190586090088
      ],
      "min": [
        0.00041394581785425544,
        0.0064397454261779785
      ],
      "type": "VEC2"
    },
    {
      "bufferView": 1,
      "byteOffset": 674072,
      "componentType": 5126,
      "count": 59533,
      "max": [
        0.99389570951461792,
        0.99956190586090088
      ],
      "min": [
        0.00041394581785425544,
        0.0064397454261779785
      ],
      "type": "VEC2"
    },
    {
      "bufferView": 1,
      "byteOffset": 1150336,
      "componentType": 5126,
      "count": 59533,
      "max": [
        0.99389570951461792,
        0.99956190586090088
      ],
      "min": [
        0.00041394581785425544,
        0.0064397454261779785
      ],
      "type": "VEC2"
    },
    {
      "bufferView": 0,
      "byteOffset": 179748,
      "componentType": 5125,
      "count": 299397,
      "max": [
        59532
      ],
      "min": [
        0
      ],
      "type": "SCALAR"
    }
  ],
  "asset": {
    "extras": {
      "author": "FIELDFLY3R (https://sketchfab.com/FIELDFLY3R)",
      "license": "CC-BY-4.0 (http://creativecommons.org/licenses/by/4.0/)",
      "source": "https://sketchfab.com/3d-models/human-skeleton-with-heart-8de0ef3161c94a0787101e7618c1bc43",
      "title": "Human Skeleton with Heart"
    },
    "generator": "Sketchfab-8.46.0",
    "version": "2.0"
  },
  "bufferViews": [
    {
      "buffer": 0,
      "byteLength": 1377336,
      "byteOffset": 0,
      "name": "floatBufferViews",
      "target": 34963
    },
    {
      "buffer": 0,
      "byteLength": 1626600,
      "byteOffset": 1377336,
      "byteStride": 8,
      "name": "floatBufferViews",
      "target": 34962
    },
    {
      "buffer": 0,
      "byteLength": 1626600,
      "byteOffset": 3003936,
      "byteStride": 12,
      "name": "floatBufferViews",
      "target": 34962
    }
  ],
  "buffers": [
    {
      "byteLength": 4630536,
      "uri": "scene.bin"
    }
  ],
  "extensionsRequired": [
    "KHR_materials_pbrSpecularGlossiness"
  ],
  "extensionsUsed": [
    "KHR_materials_pbrSpecularGlossiness"
  ],
  "images": [
    {
      "uri": "textures/material_diffuse.png"
    },
    {
      "uri": "textures/material_specularGlossiness.png"
    },
    {
      "uri": "textures/material_1_diffuse.png"
    },
    {
      "uri": "textures/material_1_specularGlossiness.png"
    }
  ],
  "materials": [
    {
      "doubleSided": true,
      "emissiveFactor": [
        0,
        0,
        0
      ],
      "extensions": {
        "KHR_materials_pbrSpecularGlossiness": {
          "diffuseFactor": [
            1,
            1,
            1,
            1
          ],
          "diffuseTexture": {
            "index": 0,
            "texCoord": 0
          },
          "glossinessFactor": 1,
          "specularFactor": [
            1,
            1,
            1
          ],
          "specularGlossinessTexture": {
            "index": 1,
            "texCoord": 0
          }
        }
      },
      "name": "material"
    },
    {
      "doubleSided": true,
      "emissiveFactor": [
        0,
        0,
        0
      ],
      "extensions": {
        "KHR_materials_pbrSpecularGlossiness": {
          "diffuseFactor": [
            1,
            1,
            1,
            1
          ],
          "diffuseTexture": {
            "index": 2,
            "texCoord": 0
          },
          "glossinessFactor": 0,
          "specularFactor": [
            1,
            1,
            1
          ],
          "specularGlossinessTexture": {
            "index": 3,
            "texCoord": 0
          }
        }
      },
      "name": "material_1"
    }
  ],
  "meshes": [
    {
      "primitives": [
        {
          "attributes": {
            "NORMAL": 1,
            "POSITION": 0,
            "TEXCOORD_0": 2,
            "TEXCOORD_1": 3,
            "TEXCOORD_2": 4
          },
          "indices": 5,
          "material": 0,
          "mode": 4
        }
      ]
    },
    {
      "primitives": [
        {
          "attributes": {
            "NORMAL": 7,
            "POSITION": 6,
            "TEXCOORD_0": 8,
            "TEXCOORD_1": 9,
            "TEXCOORD_2": 10
          },
          "indices": 11,
          "material": 1,
          "mode": 4
        }
      ]
    }
  ],
  "nodes": [
    {
      "children": [
        1
      ],
      "name": "RootNode (gltf orientation matrix)",
      "rotation": [
        -0.70710678118654746,
        -0,
        -0,
        0.70710678118654757
      ]
    },
    {
      "children": [
        2
      ],
      "matrix": [
        1.2121212482452393,
        0,
        0,
        0,
        0,
        1.2121212482452393,
        1.9492396010709309e-16,
        0,
        0,
        -1.9492396010709309e-16,
        1.2121212482452393,
        0,
        0,
        5.5511151231257827e-17,
        0,
        1
      ],
      "name": "RootNode (model correction matrix)"
    },
    {
      "children": [
        3
      ],
      "name": "root"
    },
    {
      "children": [
        4
      ],
      "matrix": [
        1,
        0,
        0,
        0,
        0,
        2.2204460492503131e-16,
        1,
        0,
        0,
        -1,
        2.2204460492503131e-16,
        0,
        0,
        0,
        0,
        1
      ],
      "name": "GLTF_SceneRootNode"
    },
    {
      "children": [
        5,
        7
      ],
      "name": "root_1"
    },
    {
      "children": [
        6
      ],
      "matrix": [
        0.0073114419355988503,
        0,
        0,
        0,
        0,
        0.0073114419355988503,
        0,
        0,
        0,
        0,
        0.0073114419355988503,
        0,
        -0.083759523928165436,
        0.76994127035140991,
        0.15949979424476624,
        1
      ],
      "name": "node_id34_2"
    },
    {
      "mesh": 0,
      "name": ""
    },
    {
      "children": [
        8
      ],
      "matrix": [
        0.054494637995958328,
        0,
        0,
        0,
        0,
        0.054494637995958328,
        0,
        0,
        0,
        0,
        0.054494637995958328,
        0,
        -0.089860141277313232,
        -0.21030931174755096,
        0.14465674757957458,
        1
      ],
      "name": "node_id40_0"
    },
    {
      "mesh": 1,
      "name": ""
    }
  ],
  "samplers": [
    {
      "magFilter": 9729,
      "minFilter": 9987,
      "wrapS": 10497,
      "wrapT": 10497
    }
  ],
  "scene": 0,
  "scenes": [
    {
      "name": "OSG_Scene",
      "nodes": [
        0
      ]
    }
  ],
  "textures": [
    {
      "sampler": 0,
      "source": 0
    },
    {
      "sampler": 0,
      "source": 1
    },
    {
      "sampler": 0,
      "source": 2
    },
    {
      "sampler": 0,
      "source": 3
    }
  ]
}

